<svg width="24" height="24" viewBox="0 0 24 24" fill="none" xmlns="http://www.w3.org/2000/svg">
<rect width="24" height="24" rx="4" fill="#F5F9FE"/>
<path d="M9.92861 18.0354V21.724C9.92861 21.8383 10.0212 21.9309 10.1355 21.9309H12.239C12.7912 21.9309 13.239 21.4832 13.239 20.9309V17.8174C13.239 17.6653 13.2744 17.5153 13.3424 17.3792C13.4104 17.2431 13.4459 17.0931 13.4459 16.941V15.2068C13.4459 15.0354 13.5848 14.8964 13.7562 14.8964C13.9276 14.8964 14.0665 14.757 14.0907 14.5873C14.1342 14.2826 14.2439 13.8914 14.4803 13.6551C14.6973 13.4381 14.9854 12.8536 15.2165 12.3213C15.4015 11.895 15.2256 11.4154 14.9129 11.0716C14.8202 10.9697 14.7393 10.8627 14.6872 10.7585C14.539 10.4621 14.2691 5.94037 14.1153 3.01754C14.0873 2.4854 13.6482 2.06885 13.1153 2.06885H10.474C9.93793 2.06885 9.4972 2.49159 9.47488 3.02722L9.11614 11.6371C9.10642 11.8704 9.00939 12.0915 8.8443 12.2566C8.51674 12.5842 8.48224 13.1013 8.74185 13.4849C8.88793 13.7008 9.02502 13.9168 9.10102 14.0688C9.16275 14.1923 9.18803 14.3004 9.19188 14.391C9.19857 14.5484 9.24646 14.7623 9.3873 14.8327C9.46545 14.8717 9.51482 14.9513 9.51482 15.0386V16.9654C9.51482 17.3278 9.92861 17.673 9.92861 18.0354Z" fill="#CEDCF3" stroke="#CEDCF3"/>
<path d="M9.92969 18V21.7241C9.92969 21.8384 10.0223 21.931 10.1366 21.931H12.24C12.7923 21.931 13.24 21.4833 13.24 20.931V18.2069V18H9.92969Z" fill="#B6C9E9" stroke="#B6C9E9"/>
<path d="M15.5148 11.5864C14.5493 11.8623 12.2459 12.8692 10.7562 13.0347C9.26654 13.2002 8.48033 12.8278 8.27344 12.8278" stroke="#B6C9E9"/>
</svg>