<svg width="24" height="24" viewBox="0 0 24 24" fill="none" xmlns="http://www.w3.org/2000/svg">
<path d="M17.6062 18.4895C17.6062 19.5156 16.7744 20.3474 15.7483 20.3474C14.7224 20.3474 13.8906 19.5156 13.8906 18.4895C13.8906 17.4636 14.7224 16.6318 15.7483 16.6318C16.7744 16.6318 17.6062 17.4636 17.6062 18.4895Z" fill="#5976A6"/>
<path d="M10.1724 18.4895C10.1724 19.5156 9.34068 20.3474 8.31473 20.3474C7.28878 20.3474 6.45703 19.5156 6.45703 18.4895C6.45703 17.4636 7.28878 16.6318 8.31473 16.6318C9.34068 16.6318 10.1724 17.4636 10.1724 18.4895Z" fill="#5976A6"/>
<path d="M17.2335 15.8895H8.6574C7.42234 15.8895 6.34935 15.0105 6.10715 13.7992L4.29611 4.74318H2.37146C2.16645 4.74318 2 4.57673 2 4.37159C2 4.16645 2.16645 4 2.37146 4H4.60075C4.77766 4 4.92993 4.1249 4.96489 4.29869L6.83603 13.6528C7.0092 14.5185 7.77527 15.1464 8.6574 15.1464H17.2335C17.4386 15.1464 17.6051 15.3128 17.6051 15.518C17.6051 15.7231 17.4386 15.8895 17.2335 15.8895V15.8895Z" fill="#5976A6"/>
<path d="M18.9987 6.35514C18.928 6.27564 18.827 6.22949 18.72 6.22949H5.34425C5.13911 6.22949 4.97266 6.39594 4.97266 6.60108C4.97266 6.80622 5.13911 6.97267 5.34425 6.97267H5.41404L6.39196 12.1876C6.21954 12.2202 6.0873 12.3644 6.0873 12.5458C6.0873 12.7508 6.25375 12.9172 6.45889 12.9172H16.6646C17.5994 12.9172 18.3923 12.218 18.5082 11.2898L19.0886 6.64682C19.1019 6.54132 19.0692 6.43434 18.9987 6.35484L18.9987 6.35514Z" fill="#5976A6"/>
</svg>
