<svg width="19" height="19" viewBox="0 0 19 19" fill="none" xmlns="http://www.w3.org/2000/svg">
<path d="M17.1878 16.0138C17.1878 17.125 16.2871 18.0257 15.1759 18.0257C14.0648 18.0257 13.1641 17.125 13.1641 16.0138C13.1641 14.9027 14.0648 14.002 15.1759 14.002C16.2871 14.002 17.1878 14.9027 17.1878 16.0138Z" fill="#86ABEC"/>
<path d="M9.14079 16.0138C9.14079 17.125 8.24005 18.0257 7.12899 18.0257C6.01793 18.0257 5.11719 17.125 5.11719 16.0138C5.11719 14.9027 6.01793 14.002 7.12899 14.002C8.24005 14.002 9.14079 14.9027 9.14079 16.0138Z" fill="#86ABEC"/>
<path d="M16.7862 13.1981H7.49871C6.1612 13.1981 4.9992 12.2461 4.73692 10.9343L2.77564 1.1271H0.69134C0.469319 1.1271 0.289062 0.946838 0.289062 0.724682C0.289062 0.502525 0.469322 0.322266 0.69134 0.322266H3.10556C3.29713 0.322266 3.46204 0.457527 3.49991 0.645733L5.52626 10.7758C5.7138 11.7133 6.54341 12.3933 7.49871 12.3933H16.7862C17.0084 12.3933 17.1886 12.5735 17.1886 12.7957C17.1886 13.0178 17.0084 13.1981 16.7862 13.1981V13.1981Z" fill="#86ABEC"/>
<path d="M18.6973 2.8724C18.6208 2.78631 18.5114 2.73633 18.3955 2.73633H3.91023C3.68807 2.73633 3.50781 2.91659 3.50781 3.13874C3.50781 3.3609 3.68807 3.54116 3.91023 3.54116H3.98581L5.04486 9.18871C4.85813 9.224 4.71492 9.38015 4.71492 9.57657C4.71492 9.79859 4.89518 9.97885 5.11734 9.97885H16.1696C17.182 9.97885 18.0407 9.22158 18.1662 8.2164L18.7947 3.18827C18.8091 3.07403 18.7737 2.95816 18.6973 2.87208L18.6973 2.8724Z" fill="#86ABEC"/>
</svg>
