<svg width="24" height="26" viewBox="0 0 24 26" fill="none" xmlns="http://www.w3.org/2000/svg">
<path fill-rule="evenodd" clip-rule="evenodd" d="M6.38636 5.19174C6.38636 5.19174 6.3817 9.04473 6.38636 12.5551C6.38705 12.989 6.1444 13.39 5.76233 13.6072C5.03952 14.0187 4.28688 14.4464 3.601 14.8356V7.07446C3.601 5.29287 4.05924 4.69891 4.78006 4.05664C4.12796 4.42645 2.12532 5.56177 2.12532 5.56177C1.22014 6.09292 0.525205 6.95066 0.52509 8.51565C0.52509 8.51565 0.521372 13.5244 0.52509 17.3236C0.526244 18.5709 1.89975 19.3524 3.0001 18.7288L8.25455 15.7497C9.01857 15.3166 9.48875 14.5076 9.48446 13.6413C9.47053 10.9819 9.48423 5.34107 9.48446 3.75044C9.48446 1.96903 9.92236 1.37499 10.6432 0.732422C9.99098 1.10223 7.98834 2.23771 7.98834 2.23771C7.08326 2.76895 6.38659 3.62662 6.38636 5.19174Z" fill="#263B5E"/>
<path fill-rule="evenodd" clip-rule="evenodd" d="M21.3723 12.5992C21.3723 12.5992 17.9499 10.6363 14.8274 8.85577C14.4415 8.63566 14.2075 8.2222 14.2068 7.78106C14.2054 6.94709 14.2044 6.07905 14.204 5.28795C14.204 5.28795 19.232 8.16367 21.1024 9.23352C22.686 10.1391 22.9829 10.8375 23.1906 11.7872C23.1906 11.0354 23.1905 8.72677 23.1905 8.72677C23.1744 7.67395 22.7621 6.63691 21.3714 5.84118C21.3714 5.84118 16.9214 3.29176 13.5429 1.36364C12.4336 0.730372 11.0469 1.52086 11.0469 2.78918V8.84697C11.0469 9.72764 11.5288 10.5455 12.301 10.9821C14.6718 12.3222 19.6785 15.2018 21.0922 16.0104C22.6758 16.916 22.9829 17.5967 23.1906 18.5466C23.1906 17.7946 23.1905 15.4859 23.1905 15.4859C23.1744 14.4332 22.7631 13.3948 21.3723 12.5992Z" fill="#263B5E"/>
<path fill-rule="evenodd" clip-rule="evenodd" d="M7.3111 21.6113C7.3111 21.6113 10.6657 19.7101 13.7173 17.9707C14.0945 17.7558 14.5629 17.7615 14.9407 17.9753C15.6549 18.3798 16.3984 18.8011 17.0754 19.1855C17.0754 19.1855 12.1539 21.9823 10.3231 23.0227C8.77324 23.9036 8.03044 23.8118 7.11585 23.5232C7.75937 23.8889 9.73489 25.0115 9.73489 25.0115C10.6434 25.5099 11.7325 25.6704 13.094 24.8967C13.094 24.8967 17.4535 22.4233 20.7568 20.5419C21.8417 19.9244 21.844 18.383 20.7587 17.7661L15.5753 14.8204C14.8216 14.3921 13.8859 14.3967 13.1344 14.8289C10.8276 16.1551 5.91322 18.9326 4.52932 19.7188C2.97935 20.5997 2.24673 20.525 1.33203 20.2366C1.97566 20.6021 3.9512 21.7247 3.9512 21.7247C4.8596 22.2231 5.94953 22.385 7.3111 21.6113Z" fill="#263B5E"/>
</svg>
