<svg width="24" height="24" viewBox="0 0 24 24" fill="none" xmlns="http://www.w3.org/2000/svg">
<rect width="24" height="24" rx="4" fill="#F5F9FE"/>
<path d="M11.2565 18.2068H13.0329C13.1653 18.2068 13.2924 18.1541 13.3861 18.0605L13.4467 17.9999C13.5791 17.8674 13.6536 17.6877 13.6536 17.5004V17.1967C13.6536 17.0446 13.689 16.8945 13.757 16.7585C13.825 16.6224 13.8605 16.4724 13.8605 16.3203V13.655V13.2412V12.6206V11.4826C13.8605 11.3112 13.9994 11.1723 14.1708 11.1723C14.3422 11.1723 14.4811 11.0333 14.4811 10.8619V6.79297C14.4811 6.24068 14.0334 5.79297 13.4811 5.79297H10.5156C9.96334 5.79297 9.51562 6.24069 9.51562 6.79297V10.8619C9.51562 11.0333 9.65457 11.1723 9.82597 11.1723C9.99737 11.1723 10.1363 11.3112 10.1363 11.4826V12.6206V13.655V16.259C10.1363 16.4463 10.2107 16.626 10.3432 16.7585C10.4757 16.891 10.5501 17.0706 10.5501 17.258V17.5004C10.5501 17.6877 10.6245 17.8674 10.757 17.9999C10.8895 18.1323 11.0692 18.2068 11.2565 18.2068Z" fill="#CEDCF3" stroke="#CEDCF3"/>
<path d="M11.2608 18.2068H13.0372C13.1697 18.2068 13.2967 18.1542 13.3904 18.0605L13.451 17.9999C13.5834 17.8674 13.6579 17.6878 13.6579 17.5004V17.1968C13.6579 17.0446 13.6933 16.8946 13.7613 16.7585C13.8293 16.6225 13.8648 16.4724 13.8648 16.3203V13.6551V13.2413V12.6206H10.1406V13.6551V16.259C10.1406 16.4464 10.215 16.6261 10.3475 16.7585C10.48 16.891 10.5544 17.0707 10.5544 17.258V17.5004C10.5544 17.6878 10.6288 17.8674 10.7613 17.9999C10.8938 18.1324 11.0735 18.2068 11.2608 18.2068Z" fill="#B6C9E9" stroke="#B6C9E9"/>
</svg>