<svg width="24" height="24" viewBox="0 0 24 24" fill="none" xmlns="http://www.w3.org/2000/svg">
<rect width="24" height="24" rx="4" fill="#F5F9FE"/>
<path d="M6.00323 17.4826V18.2067C6.00323 18.5495 6.28113 18.8274 6.62392 18.8274C6.96672 18.8274 7.24461 18.5495 7.24461 18.2067V17.586C7.24461 17.4718 7.33724 17.3791 7.45151 17.3791C7.56577 17.3791 7.65841 17.2865 7.65841 17.1722V14.8358C7.65841 14.7421 7.69562 14.6523 7.76185 14.586C7.82809 14.5198 7.8653 14.4299 7.8653 14.3363V13.3989C7.8653 13.3118 7.93591 13.2412 8.023 13.2412C8.09786 13.2412 8.16241 13.1886 8.17747 13.1152L8.27909 12.6205L8.43467 12.1538C8.46866 12.0518 8.48599 11.945 8.48599 11.8375V9.72437C8.48599 9.45916 8.37774 9.20728 8.20386 9.00701C8.03021 8.80698 7.8653 8.58706 7.8653 8.48257C7.8653 8.47628 7.8655 8.46997 7.86589 8.46364C7.88352 8.17582 8.0612 7.90374 8.04201 7.61602L7.92753 5.89881C7.89251 5.37352 7.45621 4.96533 6.92975 4.96533H6.52056C5.99592 4.96533 5.56048 5.37078 5.5231 5.89409L5.40025 7.61398C5.38866 7.77626 5.42093 7.93867 5.49369 8.08418L5.52226 8.14132C5.56644 8.22968 5.58944 8.32711 5.58944 8.42589C5.58944 8.59466 5.5224 8.75651 5.40306 8.87585L5.26164 9.01727C5.07411 9.2048 4.96875 9.45916 4.96875 9.72437V11.8375C4.96875 11.945 4.98608 12.0518 5.02007 12.1538L5.14824 12.5383C5.16639 12.5927 5.17565 12.6498 5.17565 12.7072V13.0343C5.17565 13.1486 5.26828 13.2412 5.38254 13.2412C5.49681 13.2412 5.58944 13.3338 5.58944 13.4481V14.3363C5.58944 14.4299 5.62665 14.5198 5.69289 14.586C5.75912 14.6523 5.79634 14.7421 5.79634 14.8358V17.2757C5.79634 17.3328 5.84265 17.3791 5.89978 17.3791C5.95692 17.3791 6.00323 17.4254 6.00323 17.4826Z" fill="#CEDCF3" stroke="#CEDCF3"/>
<path d="M10.1436 16.2414V17.9664C10.1436 18.0993 10.2513 18.2069 10.3841 18.2069C10.4876 18.2069 10.5795 18.2731 10.6122 18.3713L10.6821 18.581C10.7312 18.7283 10.869 18.8276 11.0243 18.8276H11.1781C11.2923 18.8276 11.385 18.735 11.385 18.6207C11.385 18.5064 11.4776 18.4138 11.5919 18.4138H12.8088C12.9506 18.4138 13.0802 18.4939 13.1436 18.6207L13.1764 18.6862C13.2197 18.7729 13.3082 18.8276 13.4051 18.8276C13.5463 18.8276 13.6608 18.7131 13.6608 18.5719V18.2069V16.1379C13.6608 15.7952 13.9387 15.5173 14.2815 15.5173H14.4089C14.6814 15.5173 14.9022 15.2964 14.9022 15.024C14.9022 14.6698 14.5386 14.4272 14.2056 14.5476C13.63 14.7555 12.8725 14.9935 12.2126 15.1035C11.4586 15.2291 10.2593 14.8857 9.39357 14.5621C9.06231 14.4383 8.69531 14.6774 8.69531 15.031C8.69531 15.2996 8.91301 15.5173 9.18155 15.5173H9.41945C9.81938 15.5173 10.1436 15.8415 10.1436 16.2414Z" fill="#CEDCF3" stroke="#CEDCF3"/>
<path d="M16.0415 15.9926C16.0978 15.4862 16.5258 15.103 17.0354 15.103H18.1419C18.6514 15.103 19.0795 15.4862 19.1357 15.9926L19.4507 18.8272H15.7266L16.0415 15.9926Z" fill="#CEDCF3" stroke="#CEDCF3"/>
</svg>