<svg width="24" height="24" viewBox="0 0 24 24" fill="none" xmlns="http://www.w3.org/2000/svg">
<path d="M16.5729 9.33333H15.811V7.80952C15.811 5.67619 14.1348 4 12.0015 4C9.86815 4 8.19196 5.67619 8.19196 7.80952V9.33333H7.43006C6.59196 9.33333 5.90625 10.019 5.90625 10.8571V18.4762C5.90625 19.3143 6.59196 20 7.43006 20H16.5729C17.411 20 18.0967 19.3143 18.0967 18.4762V10.8571C18.0967 10.019 17.411 9.33333 16.5729 9.33333ZM12.0015 16.1905C11.1634 16.1905 10.4777 15.5048 10.4777 14.6667C10.4777 13.8286 11.1634 13.1429 12.0015 13.1429C12.8396 13.1429 13.5253 13.8286 13.5253 14.6667C13.5253 15.5048 12.8396 16.1905 12.0015 16.1905ZM14.3634 9.33333H9.63958V7.80952C9.63958 6.51429 10.7062 5.44762 12.0015 5.44762C13.2967 5.44762 14.3634 6.51429 14.3634 7.80952V9.33333Z" fill="#ADB5C5"/>
</svg>
