<svg width="51" height="51" viewBox="0 0 51 51" fill="none" xmlns="http://www.w3.org/2000/svg">
<path d="M13.953 3.39569C16.7396 0.624545 20.7928 -0.449477 24.586 0.578199L38.8694 4.44796C42.6626 5.47563 45.6193 8.44888 46.6259 12.2477L50.4163 26.5523C51.4229 30.3512 50.3264 34.3984 47.5398 37.1696L37.0468 47.6045C34.2602 50.3756 30.2069 51.4496 26.4138 50.4219L12.1304 46.5522C8.33722 45.5245 5.38044 42.5513 4.37385 38.7524L0.583479 24.4478C-0.423115 20.649 0.673402 16.6017 3.45998 13.8306L13.953 3.39569Z" fill="#D9D9D9"/>
<path d="M13.953 3.39569C16.7396 0.624545 20.7928 -0.449477 24.586 0.578199L38.8694 4.44796C42.6626 5.47563 45.6193 8.44888 46.6259 12.2477L50.4163 26.5523C51.4229 30.3512 50.3264 34.3984 47.5398 37.1696L37.0468 47.6045C34.2602 50.3756 30.2069 51.4496 26.4138 50.4219L12.1304 46.5522C8.33722 45.5245 5.38044 42.5513 4.37385 38.7524L0.583479 24.4478C-0.423115 20.649 0.673402 16.6017 3.45998 13.8306L13.953 3.39569Z" fill="url(#paint0_radial_7_5301)"/>
<defs>
<radialGradient id="paint0_radial_7_5301" cx="0" cy="0" r="1" gradientUnits="userSpaceOnUse" gradientTransform="translate(25.4999 25.5001) rotate(70.9761) scale(30.5694)">
<stop offset="0.143708" stop-color="#2F0823"/>
<stop offset="0.403624" stop-color="#6A074C"/>
<stop offset="1" stop-color="#DA58B3"/>
</radialGradient>
</defs>
</svg>
