<svg width="16" height="15" viewBox="0 0 16 15" fill="none" xmlns="http://www.w3.org/2000/svg">
<path fill-rule="evenodd" clip-rule="evenodd" d="M13.9394 4.21789C14.2321 4.21789 14.5092 4.50578 14.5092 4.93295V6.19857C14.5092 6.40932 14.3835 6.52293 14.2769 6.52293H13.6032C13.4966 6.52293 13.3696 6.40932 13.3696 6.19857V4.93295C13.3696 4.50549 13.6455 4.21789 13.9394 4.21789H13.9394ZM1.81446 4.21789C2.10761 4.21789 2.38458 4.50578 2.38458 4.93295V6.19857C2.38458 6.40932 2.25756 6.52293 2.15094 6.52293H1.47729C1.37067 6.52293 1.24379 6.40932 1.24379 6.19857V4.93295C1.24364 4.50549 1.52177 4.21789 1.81447 4.21789H1.81446ZM11.8127 3.79058C12.315 3.79058 12.7115 4.18858 12.7115 4.69919V6.19831C12.7115 6.45223 12.5206 6.64489 12.2723 6.64489H11.3531C11.1062 6.64489 10.9147 6.45223 10.9147 6.19831V4.69919C10.9147 4.18888 11.3104 3.79058 11.8127 3.79058ZM3.94188 3.79058C4.4427 3.79058 4.83955 4.18858 4.83955 4.69919V6.19831C4.83955 6.45223 4.64835 6.64489 4.40025 6.64489H3.48186C3.23378 6.64489 3.04256 6.45223 3.04256 6.19831V4.69919C3.04271 4.18888 3.43985 3.79058 3.94184 3.79058H3.94188ZM9.23204 3.67069C9.80564 3.67069 10.2556 4.12325 10.2556 4.69919V6.34374C10.2556 6.63908 10.0304 6.86499 9.73768 6.86499H8.72363C8.4318 6.86499 8.20675 6.63893 8.20675 6.34374V4.69919C8.20704 4.12325 8.65975 3.67069 9.23204 3.67069ZM6.52296 3.67069C7.09495 3.67069 7.54766 4.12325 7.54766 4.69919V6.34374C7.54766 6.63908 7.32276 6.86499 7.02962 6.86499H6.01586C5.72432 6.86499 5.49913 6.63893 5.49913 6.34374V4.69919C5.49913 4.12325 5.94907 3.67069 6.52296 3.67069ZM7.8767 0.799316C6.36066 0.799316 4.94376 0.918034 3.7798 1.09684C2.61711 1.27506 1.72179 1.50112 1.18434 1.77225C0.523376 2.10493 0.1875 2.76823 0.1875 3.56921C0.1875 4.22128 0.252547 4.82508 0.585503 5.32852V6.19835C0.585503 6.71392 0.959313 7.18073 1.4772 7.18073H2.15086C2.36394 7.18073 2.55017 7.09848 2.6991 6.96882C2.89862 7.17461 3.17589 7.3031 3.48201 7.3031H4.4004C4.66059 7.3031 4.89656 7.20625 5.08384 7.05385C5.29925 7.33678 5.63556 7.52406 6.01564 7.52406H7.02939C7.3625 7.52406 7.6622 7.38142 7.87647 7.15653C8.09189 7.38142 8.39086 7.52406 8.72356 7.52406H9.73761C10.1188 7.52406 10.4536 7.33665 10.6691 7.05385C10.858 7.20596 11.0938 7.3031 11.3528 7.3031H12.2721C12.5782 7.3031 12.8556 7.17461 13.0538 6.96882C13.2027 7.09848 13.3891 7.18073 13.6032 7.18073H14.2769C14.7937 7.18073 15.1686 6.71373 15.1686 6.19835V5.32852C15.5017 4.82508 15.5656 4.22128 15.5656 3.56921C15.5656 2.76793 15.2281 2.10492 14.5687 1.77225C14.0314 1.50113 13.1358 1.27508 11.9733 1.09684C10.811 0.917889 9.393 0.799316 7.87674 0.799316H7.8767Z" fill="#2066E4"/>
<path d="M8.56573 10.0048H9.38974C9.59436 10.0048 9.75056 10.1596 9.75056 10.3665V11.7046C9.75056 12.1404 9.41074 12.4815 8.97744 12.4815C8.54561 12.4815 8.20663 12.1405 8.20663 11.7046V10.3665C8.20663 10.1595 8.36181 10.0048 8.5657 10.0048H8.56573ZM6.3639 10.0048H7.18791C7.39239 10.0048 7.54727 10.1596 7.54727 10.3665V11.7046C7.54727 12.1404 7.20833 12.4815 6.77531 12.4815C6.34228 12.4815 6.00219 12.1405 6.00219 11.7046V10.3665C6.0019 10.1595 6.15941 10.0048 6.36388 10.0048H6.3639ZM10.7692 9.71206H11.5932C11.7978 9.71206 11.9526 9.86811 11.9526 10.0752V11.4119C11.9526 11.8487 11.6141 12.1876 11.1808 12.1876C10.7489 12.1876 10.4099 11.8487 10.4099 11.4119V10.0752C10.4098 9.86811 10.565 9.71206 10.7692 9.71206H10.7692ZM4.16069 9.71206H4.98325C5.18889 9.71206 5.34377 9.86811 5.34377 10.0752V11.4119C5.34377 11.8487 5.00512 12.1876 4.57181 12.1876C4.13852 12.1876 3.8 11.8487 3.8 11.4119V10.0752C3.80014 9.86811 3.95605 9.71206 4.16067 9.71206H4.16069ZM12.7887 9.5439H13.3914C13.4675 9.5439 13.568 9.62849 13.568 9.79898V10.929C13.568 11.2933 13.3333 11.5331 13.09 11.5331C12.8468 11.5331 12.6108 11.2933 12.6108 10.929V9.79898C12.6109 9.62849 12.7124 9.5439 12.7887 9.5439H12.7887ZM2.36109 9.5439H2.96489C3.04102 9.5439 3.14165 9.62849 3.14165 9.79898V10.929C3.14165 11.2933 2.90539 11.5331 2.66356 11.5331C2.42015 11.5331 2.18432 11.2933 2.18432 10.929V9.79898C2.18475 9.62849 2.28641 9.5439 2.36108 9.5439H2.36109ZM14.0522 9.2474H14.6243C14.7004 9.2474 14.8022 9.33199 14.8022 9.50248V10.4789C14.8022 10.5709 14.7869 10.6557 14.7295 10.8044C14.6727 10.9545 14.5009 11.0839 14.3228 11.0839C14.2261 11.0839 14.2276 11.0223 14.2276 10.929V9.79896C14.2277 9.59711 14.1608 9.40446 14.0521 9.24739L14.0522 9.2474ZM1.12862 9.2474H1.70192C1.5921 9.40447 1.52676 9.59699 1.52676 9.79896V10.929C1.52676 11.0719 1.5059 11.0839 1.43109 11.0839C1.25316 11.0839 1.0815 10.9545 1.02446 10.8044C0.967289 10.6558 0.951682 10.5709 0.951682 10.4789V9.50249C0.951682 9.33199 1.05319 9.2474 1.12859 9.2474L1.12862 9.2474ZM1.12862 8.58789C0.644409 8.58789 0.293673 9.02599 0.293673 9.50248V10.4789C0.293673 10.6134 0.317883 10.7429 0.353179 10.8661C0.222357 11.2583 0.1875 11.6818 0.1875 12.1368C0.1875 12.9378 0.526151 13.6007 1.1855 13.9335C1.7228 14.2046 2.61697 14.4307 3.77976 14.6083C4.94361 14.7874 6.36048 14.9058 7.87666 14.9058C9.393 14.9058 10.8108 14.7871 11.9736 14.6083C13.1361 14.4304 14.0316 14.2043 14.569 13.9335C15.2284 13.6004 15.5659 12.9375 15.5659 12.1368C15.5659 11.6818 15.5319 11.2584 15.4002 10.8661C15.4364 10.743 15.4606 10.6134 15.4606 10.4789V9.50248C15.4606 9.02599 15.1098 8.58789 14.6243 8.58789H14.0217C13.7726 8.58789 13.5534 8.70982 13.4046 8.88542L12.789 8.88425C12.501 8.88425 12.293 9.05693 12.1453 9.28225C11.981 9.16747 11.8078 9.05255 11.5935 9.05255H10.7695C10.402 9.05255 10.1344 9.28488 9.95557 9.58123C9.78857 9.46018 9.60948 9.34642 9.39011 9.34642H8.5661C8.2976 9.34642 8.05915 9.46134 7.87654 9.63446C7.69365 9.4612 7.4568 9.34642 7.18813 9.34642H6.36412C6.14507 9.34642 5.96597 9.46032 5.79781 9.58123C5.61871 9.28473 5.35239 9.05255 4.98354 9.05255H4.16099C3.94675 9.05255 3.77378 9.16747 3.60898 9.28225C3.46153 9.05692 3.25355 8.88425 2.96552 8.88425L2.34963 8.88542C2.20101 8.70982 1.98064 8.58789 1.73257 8.58789H1.12862Z" fill="#2066E4"/>
</svg>
