<svg
        width="21"
        height="45"
        viewBox="0 0 21 45"
        xmlns="http://www.w3.org/2000/svg"
    >
        <path
            d="M1.17643 43.8197L0.514681 43.8984C0.622289 43.4907 0.795664 43.0085 1.00945 42.4426C1.06166 42.3044 1.11615 42.1616 1.17228 42.0145C1.35337 41.5397 1.55145 41.0204 1.74446 40.4702C2.25157 39.0244 2.73952 37.3224 2.85637 35.4513C2.97847 33.4962 3.08464 31.3692 3.19489 29.1603C3.46591 23.7306 3.76164 17.8059 4.37947 12.7213C4.81415 9.14403 5.40381 6.02807 6.23923 3.81785C6.65728 2.71184 7.12422 1.8676 7.63656 1.30713C8.14046 0.755885 8.66623 0.500023 9.2344 0.5C10.7547 0.499939 12.0063 1.58845 13.0514 3.73069C14.0902 5.85991 14.8441 8.87994 15.4212 12.3967C16.2177 17.2507 16.6634 22.9462 17.0891 28.3861C17.2805 30.8315 17.4678 33.2252 17.6811 35.4675C17.8564 37.3097 18.4311 39.0327 19.0216 40.5634C19.1929 41.0074 19.3633 41.4306 19.5261 41.8347C19.9249 42.825 20.2777 43.7009 20.4836 44.4877C14.1146 43.2803 7.60893 43.0551 1.17643 43.8197Z"
        />
    </svg>