<svg width="10" height="15" viewBox="0 0 10 15" fill="none" xmlns="http://www.w3.org/2000/svg">
<path d="M6.7449 12.3156C5.76058 11.8553 4.41137 11.2214 3.31722 10.708L3.07299 8.54102C4.27341 9.10046 5.888 9.8582 6.96094 10.3646L6.7449 12.3156Z" fill="#03122B"/>
<path d="M6.65625 13.0738L6.6066 13.5305C6.54999 14.3096 5.89837 14.9185 5.11588 14.9185C4.3334 14.9185 3.68177 14.3094 3.62873 13.5446L3.40569 11.5439C4.44677 12.0361 5.51959 12.5461 5.90209 12.7266L6.65625 13.0738Z" fill="#03122B"/>
<path d="M7.30469 7.30176L7.04623 9.62106C5.84938 9.05805 4.12853 8.25068 2.98112 7.71597L2.93858 7.3194C3.6538 7.4221 4.36557 7.47516 5.0738 7.47516C5.821 7.47531 6.56452 7.41869 7.30463 7.30177L7.30469 7.30176Z" fill="#03122B"/>
<path d="M0.46075 3.82017C0.549305 4.56024 0.700456 5.29244 0.914092 5.99074C0.932304 6.07417 0.989667 6.14713 1.07561 6.17832C2.46182 6.70986 3.83508 6.97564 5.18746 6.97564C6.54249 6.97564 7.87658 6.70987 9.17676 6.17832C9.25757 6.1444 9.31482 6.07406 9.33314 5.99336C9.54679 5.29246 9.69793 4.56286 9.78649 3.82017C9.85683 3.23913 9.78387 2.66057 9.57546 2.14723C9.3435 1.58439 8.98655 1.14663 8.51489 0.846947C7.79565 0.39098 6.8967 0.338856 6.11235 0.706262C5.87264 0.818263 5.65376 0.966799 5.41919 1.1258C5.33325 1.18829 5.25506 1.24565 5.17686 1.3004C4.84337 1.09199 4.46025 0.860035 4.13723 0.706259C3.35037 0.33885 2.45393 0.390974 1.7348 0.844325C1.25801 1.14663 0.900955 1.58702 0.671716 2.14723C0.460581 2.66842 0.387616 3.24686 0.460581 3.82017L0.46075 3.82017Z" fill="#03122B"/>
</svg>
