<svg width="24" height="24" viewBox="0 0 24 24" fill="none" xmlns="http://www.w3.org/2000/svg">
<rect width="24" height="24" rx="4" fill="#F5F9FE"/>
<path d="M11.1716 15.9314V17.0067C11.1716 17.441 11.5236 17.793 11.9579 17.793C12.4231 17.793 12.7856 17.3913 12.759 16.9269C12.7225 16.2913 12.7168 15.6271 12.8268 15.5172C12.9261 15.4178 12.9311 15.1643 12.9042 14.9179C12.8737 14.6378 12.9202 14.3514 13.0571 14.1051C13.156 13.9272 13.2406 13.7467 13.2406 13.6551V9.31026C13.2406 8.96496 13.1072 8.13276 12.9795 7.42589C12.8948 6.9568 12.4837 6.62061 12.007 6.62061H11.9076C11.3781 6.62061 10.9404 7.03332 10.9093 7.56188L10.7578 10.1378V13.4482C10.7578 14.4827 10.9647 14.4827 10.9647 14.8965C10.9647 14.9895 10.9756 15.0738 10.9928 15.1485C11.0523 15.4069 11.1716 15.6662 11.1716 15.9314Z" fill="#CEDCF3" stroke="#CEDCF3"/>
<path d="M13.0377 13.6553V13.6553C12.3736 13.9209 11.6328 13.9209 10.9688 13.6553V13.6553" stroke="#B6C9E9" stroke-width="0.5"/>
<path d="M12.827 14.8965V14.8965C12.3061 15.157 11.6929 15.157 11.1719 14.8965V14.8965" stroke="#B6C9E9" stroke-width="0.5"/>
</svg>
