<svg width="29" height="34" viewBox="0 0 29 34" fill="none" xmlns="http://www.w3.org/2000/svg">
<g filter="url(#filter0_d_10782_104582)">
<rect y="4" width="24" height="24" rx="4" fill="white"/>
<path d="M9 22.6818C9 22.8575 9.14924 23 9.33333 23H14.6667C14.8508 23 15 22.8575 15 22.6818V22.3636C15 22.1879 14.8508 22.0455 14.6667 22.0455H9.33333C9.14924 22.0455 9 22.1879 9 22.3636V22.6818Z" fill="#3B63A4"/>
<path d="M9.66406 20.7725H14.3307V22.0452H9.66406V20.7725Z" fill="#6588C7"/>
<path fill-rule="evenodd" clip-rule="evenodd" d="M14 20.7726H10V18.1415L14 17.5091V20.7726ZM14 17.1865L10 17.819V17.1706L14 16.5378V17.1865ZM10 16.1996V16.8481L14 16.2153V15.5668L10 16.1996ZM10 15.8771V15.2287L14 14.5959V15.2442L10 15.8771ZM10 14.2575V14.9062L14 14.2734V13.6247L10 14.2575ZM10 13.935V13.2867L14 12.6539V13.3022L10 13.935ZM10 12.3157V12.9642L14 12.3314V11.6829L10 12.3157ZM10 11.9932V11.4498C10 11.1935 10.081 10.9433 10.2325 10.7317L11.1744 9.416C11.5714 8.86133 12.4286 8.86133 12.8256 9.416L13.7675 10.7317C13.9014 10.9187 13.9802 11.136 13.9967 11.3609L10 11.9932Z" fill="#6588C7"/>
</g>
<defs>
<filter id="filter0_d_10782_104582" x="-5" y="0" width="34" height="34" filterUnits="userSpaceOnUse" color-interpolation-filters="sRGB">
<feFlood flood-opacity="0" result="BackgroundImageFix"/>
<feColorMatrix in="SourceAlpha" type="matrix" values="0 0 0 0 0 0 0 0 0 0 0 0 0 0 0 0 0 0 127 0" result="hardAlpha"/>
<feOffset dy="1"/>
<feGaussianBlur stdDeviation="2.5"/>
<feColorMatrix type="matrix" values="0 0 0 0 0.462745 0 0 0 0 0.580392 0 0 0 0 0.737255 0 0 0 0.11 0"/>
<feBlend mode="normal" in2="BackgroundImageFix" result="effect1_dropShadow_10782_104582"/>
<feBlend mode="normal" in="SourceGraphic" in2="effect1_dropShadow_10782_104582" result="shape"/>
</filter>
</defs>
</svg>
